<svg width="48" height="48" viewBox="0 0 48 48" fill="none" xmlns="http://www.w3.org/2000/svg">
<path fill-rule="evenodd" clip-rule="evenodd" d="M38 21.45H24C20.134 21.45 17 25.0541 17 29.5C17 33.9459 20.134 37.55 24 37.55H38C41.866 37.55 45 33.9459 45 29.5C45 25.0541 41.866 21.45 38 21.45ZM24 18C18.4772 18 14 23.1487 14 29.5C14 35.8513 18.4772 41 24 41H38C43.5228 41 48 35.8513 48 29.5C48 23.1487 43.5228 18 38 18H24Z" fill="#1B344B"/>
<path fill-rule="evenodd" clip-rule="evenodd" d="M10 12.45H24C26.0166 12.45 27.8341 13.4307 29.1115 15H32.7843C31.0883 11.4252 27.7905 9 24 9H10C4.47715 9 0 14.1487 0 20.5C0 26.8513 4.47715 32 10 32H11.1971C11.0672 31.181 11 30.3448 11 29.5C11 29.182 11.0095 28.8651 11.0283 28.55H10C6.13401 28.55 3 24.9459 3 20.5C3 16.0541 6.13401 12.45 10 12.45ZM14.0336 28.55C14.0114 28.8633 14 29.1801 14 29.5C14 30.3586 14.0818 31.1951 14.237 32H17.3441C17.1208 31.213 17 30.3727 17 29.5C17 29.1786 17.0164 28.8616 17.0482 28.55H14.0336ZM20.0672 28.55H24C26.6178 28.55 28.9 26.8974 30.1008 24.45H33.3945C31.9935 28.8555 28.3161 32 24 32H20.5181C20.1953 31.2967 20 30.4587 20 29.5C20 29.1687 20.0233 28.8519 20.0672 28.55ZM33.9664 21.45H30.9518C30.9836 21.1384 31 20.8214 31 20.5C31 19.6273 30.8792 18.787 30.6559 18H33.763C33.9182 18.8049 34 19.6414 34 20.5C34 20.8199 33.9886 21.1367 33.9664 21.45Z" fill="#1B344B"/>
</svg>
